<?xml version="1.0" encoding="UTF-8"?>
<svg width="20px" height="15px" viewBox="0 0 20 15" version="1.1" xmlns="http://www.w3.org/2000/svg" xmlns:xlink="http://www.w3.org/1999/xlink">
    <title>flags/M/African Union</title>
    <defs>
        <rect id="path-1" x="0" y="0" width="20" height="15"></rect>
        <rect id="path-3" x="0" y="0" width="20" height="15"></rect>
    </defs>
    <g id="Symbols" stroke="none" stroke-width="1" fill="none" fill-rule="evenodd">
        <g id="flag">
            <mask id="mask-2" fill="white">
                <use xlink:href="#path-1"></use>
            </mask>
            <g id="mask"></g>
            <g id="contents" mask="url(#mask-2)">
                <g transform="translate(0.000000, -0.000000)">
                    <mask id="mask-4" fill="white">
                        <use xlink:href="#path-3"></use>
                    </mask>
                    <use id="background" stroke="none" fill="#19724D" fill-rule="evenodd" xlink:href="#path-3"></use>
                    <polygon id="Star" stroke="none" fill="#F7FCFF" fill-rule="nonzero" mask="url(#mask-4)" points="9.7348922 9.38634002 8.66380812 12.3181523 9.25570481 9.25344959 7.46230819 11.8081458 8.8272399 9.00106448 6.43374775 11.0045463 8.47869666 8.6463843 5.64822152 9.9621178 8.23382772 8.21357992 5.1592618 8.75190002 8.10932051 7.73214625 5.00019038 7.45636732 8.11365998 7.2348922 5.18184773 6.16380812 8.24655041 6.75570481 5.6918542 4.96230819 8.49893552 6.3272399 6.49545368 3.93374775 8.8536157 5.97869666 7.5378822 3.14822152 9.28642008 5.73382772 8.74809998 2.6592618 9.76785375 5.60932051 10.0436327 2.50019038 10.2651078 5.61365998 11.3361919 2.68184773 10.7442952 5.74655041 12.5376918 3.1918542 11.1727601 5.99893552 13.5662522 3.99545368 11.5213033 6.3536157 14.3517785 5.0378822 11.7661723 6.78642008 14.8407382 6.24809998 11.8906795 7.26785375 14.9998096 7.54363268 11.88634 7.7651078 14.8181523 8.83619188 11.7534496 8.24429519 14.3081458 10.0376918 11.5010645 8.6727601 13.5045463 11.0662522 11.1463843 9.02130334 12.4621178 11.8517785 10.7135799 9.26617228 11.2519 12.3407382 10.2321463 9.39067949 9.95636732 12.4998096"></polygon>
                    <path d="M9.2836019,2.87324819 L9.84899585,3.65334256 L11.1883936,3.74880319 L11.9012956,3.63053938 L12.2465677,4.76538501 L12.5072222,5.28469104 L13.8941005,7.14612254 L13.3598272,7.60660375 L12.7894666,8.36353806 L12.9049963,9.23169972 L12.7724768,9.78045064 L12.1279267,10.1782063 L12.1279267,10.9239719 L10.983071,12.0249904 L9.62326188,10.5431397 L9.34614905,10.062987 L9.4576679,8.74297274 L7.43214733,7.23118103 L6.75798982,7.23118103 L6.00316143,4.97459195 L6.47965714,4.24310853 L9.2836019,2.87324819 Z M14.109153,8.88337918 L14.077861,9.50173541 L13.4204388,10.7938369 L13.0756864,10.9093995 L12.8596294,10.7807665 L12.7911586,10.6121319 L12.7532053,10.234844 L13.0015583,9.95996241 L12.9521501,9.66686558 L13.0688895,9.43773475 L14.109153,8.88337918 Z" id="Combined-Shape" stroke="#F7FCFF" stroke-width="0.2" fill="#19724D" fill-rule="nonzero" mask="url(#mask-4)"></path>
                    <polygon id="star---55" stroke="none" fill="#FECA00" fill-rule="evenodd" mask="url(#mask-4)" points="10 1.625 9.55916106 1.85676275 9.64335381 1.36588137 9.28670761 1.01823725 9.77958053 0.946618627 10 0.5 10.2204195 0.946618627 10.7132924 1.01823725 10.3566462 1.36588137 10.4408389 1.85676275"></polygon>
                    <polygon id="star---55" stroke="none" fill="#FECA00" fill-rule="evenodd" mask="url(#mask-4)" transform="translate(11.617619, 1.462964) rotate(15.000000) translate(-11.617619, -1.462964) " points="11.617619 1.83796359 11.1767801 2.06972633 11.2609728 1.57884496 10.9043266 1.23120084 11.3971996 1.15958221 11.617619 0.712963586 11.8380385 1.15958221 12.3309114 1.23120084 11.9742652 1.57884496 12.058458 2.06972633"></polygon>
                    <polygon id="star---55" stroke="none" fill="#FECA00" fill-rule="evenodd" mask="url(#mask-4)" transform="translate(13.125000, 2.087341) rotate(30.000000) translate(-13.125000, -2.087341) " points="13.125 2.46234123 12.6841611 2.69410397 12.7683538 2.2032226 12.4117076 1.85557848 12.9045805 1.78395985 13.125 1.33734123 13.3454195 1.78395985 13.8382924 1.85557848 13.4816462 2.2032226 13.5658389 2.69410397"></polygon>
                    <polygon id="star---55" stroke="none" fill="#FECA00" fill-rule="evenodd" mask="url(#mask-4)" transform="translate(14.419417, 3.080583) rotate(45.000000) translate(-14.419417, -3.080583) " points="14.4194174 3.45558262 13.9785784 3.68734536 14.0627712 3.19646399 13.706125 2.84881987 14.1989979 2.77720124 14.4194174 2.33058262 14.6398369 2.77720124 15.1327098 2.84881987 14.7760636 3.19646399 14.8602563 3.68734536"></polygon>
                    <polygon id="star---55" stroke="none" fill="#FECA00" fill-rule="evenodd" mask="url(#mask-4)" transform="translate(15.412659, 4.375000) rotate(60.000000) translate(-15.412659, -4.375000) " points="15.4126588 4.75 14.9718198 4.98176275 15.0560126 4.49088137 14.6993664 4.14323725 15.1922393 4.07161863 15.4126588 3.625 15.6330782 4.07161863 16.1259512 4.14323725 15.769305 4.49088137 15.8534977 4.98176275"></polygon>
                    <polygon id="star---55" stroke="none" fill="#FECA00" fill-rule="evenodd" mask="url(#mask-4)" transform="translate(16.037036, 5.882381) rotate(75.000000) translate(-16.037036, -5.882381) " points="16.0370364 6.25738097 15.5961975 6.48914371 15.6803902 5.99826234 15.323744 5.65061822 15.8166169 5.5789996 16.0370364 5.13238097 16.2574559 5.5789996 16.7503288 5.65061822 16.3936826 5.99826234 16.4778754 6.48914371"></polygon>
                    <polygon id="star---55" stroke="none" fill="#FECA00" fill-rule="evenodd" mask="url(#mask-4)" transform="translate(16.250000, 7.500000) rotate(90.000000) translate(-16.250000, -7.500000) " points="16.25 7.875 15.8091611 8.10676275 15.8933538 7.61588137 15.5367076 7.26823725 16.0295805 7.19661863 16.25 6.75 16.4704195 7.19661863 16.9632924 7.26823725 16.6066462 7.61588137 16.6908389 8.10676275"></polygon>
                    <polygon id="star---55" stroke="none" fill="#FECA00" fill-rule="evenodd" mask="url(#mask-4)" transform="translate(16.037036, 9.117619) rotate(105.000000) translate(-16.037036, -9.117619) " points="16.0370364 9.49261903 15.5961975 9.72438178 15.6803902 9.2335004 15.323744 8.88585629 15.8166169 8.81423766 16.0370364 8.36761903 16.2574559 8.81423766 16.7503288 8.88585629 16.3936826 9.2335004 16.4778754 9.72438178"></polygon>
                    <polygon id="star---55" stroke="none" fill="#FECA00" fill-rule="evenodd" mask="url(#mask-4)" transform="translate(15.412659, 10.625000) rotate(120.000000) translate(-15.412659, -10.625000) " points="15.4126588 11 14.9718198 11.2317627 15.0560126 10.7408814 14.6993664 10.3932373 15.1922393 10.3216186 15.4126588 9.875 15.6330782 10.3216186 16.1259512 10.3932373 15.769305 10.7408814 15.8534977 11.2317627"></polygon>
                    <polygon id="star---55" stroke="none" fill="#FECA00" fill-rule="evenodd" mask="url(#mask-4)" transform="translate(14.419417, 11.919417) rotate(135.000000) translate(-14.419417, -11.919417) " points="14.4194174 12.2944174 13.9785784 12.5261801 14.0627712 12.0352988 13.706125 11.6876546 14.1989979 11.616036 14.4194174 11.1694174 14.6398369 11.616036 15.1327098 11.6876546 14.7760636 12.0352988 14.8602563 12.5261801"></polygon>
                    <polygon id="star---55" stroke="none" fill="#FECA00" fill-rule="evenodd" mask="url(#mask-4)" transform="translate(13.125000, 12.912659) rotate(150.000000) translate(-13.125000, -12.912659) " points="13.125 13.2876588 12.6841611 13.5194215 12.7683538 13.0285401 12.4117076 12.680896 12.9045805 12.6092774 13.125 12.1626588 13.3454195 12.6092774 13.8382924 12.680896 13.4816462 13.0285401 13.5658389 13.5194215"></polygon>
                    <polygon id="star---55" stroke="none" fill="#FECA00" fill-rule="evenodd" mask="url(#mask-4)" transform="translate(11.617619, 13.537036) rotate(165.000000) translate(-11.617619, -13.537036) " points="11.617619 13.9120364 11.1767801 14.1437992 11.2609728 13.6529178 10.9043266 13.3052737 11.3971996 13.233655 11.617619 12.7870364 11.8380385 13.233655 12.3309114 13.3052737 11.9742652 13.6529178 12.058458 14.1437992"></polygon>
                    <polygon id="star---55" stroke="none" fill="#FECA00" fill-rule="evenodd" mask="url(#mask-4)" transform="translate(10.000000, 13.750000) rotate(180.000000) translate(-10.000000, -13.750000) " points="10 14.125 9.55916106 14.3567627 9.64335381 13.8658814 9.28670761 13.5182373 9.77958053 13.4466186 10 13 10.2204195 13.4466186 10.7132924 13.5182373 10.3566462 13.8658814 10.4408389 14.3567627"></polygon>
                    <polygon id="star---55" stroke="none" fill="#FECA00" fill-rule="evenodd" mask="url(#mask-4)" transform="translate(8.382381, 13.537036) rotate(195.000000) translate(-8.382381, -13.537036) " points="8.38238097 13.9120364 7.94154203 14.1437992 8.02573477 13.6529178 7.66908858 13.3052737 8.1619615 13.233655 8.38238097 12.7870364 8.60280044 13.233655 9.09567336 13.3052737 8.73902716 13.6529178 8.82321991 14.1437992"></polygon>
                    <polygon id="star---55" stroke="none" fill="#FECA00" fill-rule="evenodd" mask="url(#mask-4)" transform="translate(6.875000, 12.912659) rotate(210.000000) translate(-6.875000, -12.912659) " points="6.875 13.2876588 6.43416106 13.5194215 6.51835381 13.0285401 6.16170761 12.680896 6.65458053 12.6092774 6.875 12.1626588 7.09541947 12.6092774 7.58829239 12.680896 7.23164619 13.0285401 7.31583894 13.5194215"></polygon>
                    <polygon id="star---55" stroke="none" fill="#FECA00" fill-rule="evenodd" mask="url(#mask-4)" transform="translate(5.580583, 11.919417) rotate(225.000000) translate(-5.580583, -11.919417) " points="5.58058262 12.2944174 5.13974368 12.5261801 5.22393642 12.0352988 4.86729023 11.6876546 5.36016315 11.616036 5.58058262 11.1694174 5.80100209 11.616036 6.293875 11.6876546 5.93722881 12.0352988 6.02142156 12.5261801"></polygon>
                    <polygon id="star---55" stroke="none" fill="#FECA00" fill-rule="evenodd" mask="url(#mask-4)" transform="translate(4.587341, 10.625000) rotate(240.000000) translate(-4.587341, -10.625000) " points="4.58734123 11 4.14650229 11.2317627 4.23069503 10.7408814 3.87404884 10.3932373 4.36692176 10.3216186 4.58734123 9.875 4.8077607 10.3216186 5.30063361 10.3932373 4.94398742 10.7408814 5.02818017 11.2317627"></polygon>
                    <polygon id="star---55" stroke="none" fill="#FECA00" fill-rule="evenodd" mask="url(#mask-4)" transform="translate(3.962964, 9.117619) rotate(255.000000) translate(-3.962964, -9.117619) " points="3.96296359 9.49261903 3.52212465 9.72438178 3.60631739 9.2335004 3.2496712 8.88585629 3.74254412 8.81423766 3.96296359 8.36761903 4.18338306 8.81423766 4.67625597 8.88585629 4.31960978 9.2335004 4.40380252 9.72438178"></polygon>
                    <polygon id="star---55" stroke="none" fill="#FECA00" fill-rule="evenodd" mask="url(#mask-4)" transform="translate(3.750000, 7.500000) rotate(270.000000) translate(-3.750000, -7.500000) " points="3.75 7.875 3.30916106 8.10676275 3.39335381 7.61588137 3.03670761 7.26823725 3.52958053 7.19661863 3.75 6.75 3.97041947 7.19661863 4.46329239 7.26823725 4.10664619 7.61588137 4.19083894 8.10676275"></polygon>
                    <polygon id="star---55" stroke="none" fill="#FECA00" fill-rule="evenodd" mask="url(#mask-4)" transform="translate(3.962964, 5.882381) rotate(285.000000) translate(-3.962964, -5.882381) " points="3.96296359 6.25738097 3.52212465 6.48914371 3.60631739 5.99826234 3.2496712 5.65061822 3.74254412 5.5789996 3.96296359 5.13238097 4.18338306 5.5789996 4.67625597 5.65061822 4.31960978 5.99826234 4.40380252 6.48914371"></polygon>
                    <polygon id="star---55" stroke="none" fill="#FECA00" fill-rule="evenodd" mask="url(#mask-4)" transform="translate(4.587341, 4.375000) rotate(300.000000) translate(-4.587341, -4.375000) " points="4.58734123 4.75 4.14650229 4.98176275 4.23069503 4.49088137 3.87404884 4.14323725 4.36692176 4.07161863 4.58734123 3.625 4.8077607 4.07161863 5.30063361 4.14323725 4.94398742 4.49088137 5.02818017 4.98176275"></polygon>
                    <polygon id="star---55" stroke="none" fill="#FECA00" fill-rule="evenodd" mask="url(#mask-4)" transform="translate(5.580583, 3.080583) rotate(315.000000) translate(-5.580583, -3.080583) " points="5.58058262 3.45558262 5.13974368 3.68734536 5.22393642 3.19646399 4.86729023 2.84881987 5.36016315 2.77720124 5.58058262 2.33058262 5.80100209 2.77720124 6.293875 2.84881987 5.93722881 3.19646399 6.02142156 3.68734536"></polygon>
                    <polygon id="star---55" stroke="none" fill="#FECA00" fill-rule="evenodd" mask="url(#mask-4)" transform="translate(6.875000, 2.087341) rotate(330.000000) translate(-6.875000, -2.087341) " points="6.875 2.46234123 6.43416106 2.69410397 6.51835381 2.2032226 6.16170761 1.85557848 6.65458053 1.78395985 6.875 1.33734123 7.09541947 1.78395985 7.58829239 1.85557848 7.23164619 2.2032226 7.31583894 2.69410397"></polygon>
                    <polygon id="star---55" stroke="none" fill="#FECA00" fill-rule="evenodd" mask="url(#mask-4)" transform="translate(8.382381, 1.462964) rotate(345.000000) translate(-8.382381, -1.462964) " points="8.38238097 1.83796359 7.94154203 2.06972633 8.02573477 1.57884496 7.66908858 1.23120084 8.1619615 1.15958221 8.38238097 0.712963586 8.60280044 1.15958221 9.09567336 1.23120084 8.73902716 1.57884496 8.82321991 2.06972633"></polygon>
                </g>
            </g>
        </g>
    </g>
</svg>