<?xml version="1.0" encoding="UTF-8"?>
<svg width="20px" height="15px" viewBox="0 0 20 15" version="1.1" xmlns="http://www.w3.org/2000/svg" xmlns:xlink="http://www.w3.org/1999/xlink">
    <title>flags/M/MQ-UNF - Martinique</title>
    <g id="Symbols" stroke="none" stroke-width="1" fill="none" fill-rule="evenodd">
        <g id="flag">
            <rect id="bg" fill="#21428E" x="0" y="0" width="20" height="15"></rect>
            <path d="M7.82730455,3.20719123 C7.82730455,3.33017719 8.02041559,3.33017719 7.77212997,3.41216782 C7.53763801,3.49415845 6.90313033,3.6034793 6.46173369,3.58981419 C6.31000359,3.58981419 5.95136882,3.49415845 5.85481331,3.49415845 C5.74446415,3.50782356 6.32379724,3.74013035 6.10309892,3.68546993 C5.79963873,3.6034793 5.62032134,3.57614909 5.85481331,3.72646525 C6.03413069,3.83578609 6.4341464,3.83578609 6.99968585,3.76746056 C7.22038417,3.74013035 7.79971726,3.6171444 8.00662194,3.58981419 C8.14455839,3.57614909 8.14455839,3.69913504 8.22732026,3.69913504 C8.9721771,3.74013035 10.296367,3.71280014 10.8757001,3.63080951 C11.3584777,3.56248398 11.5377951,3.58981419 11.6757315,3.75379546 C11.9516044,4.06809289 11.6619379,4.341395 10.8757001,4.50537627 C9.91014496,4.71035285 9.51012925,4.88799923 9.13770084,5.28428729 C8.24111391,6.24084468 9.28943093,7.32038802 11.2481285,7.47070419 C12.3930011,7.56635993 13.1378579,7.78500162 12.9585405,7.96264799 C12.8895723,8.03097352 12.1309218,8.14029436 11.2619222,8.20861989 C9.3721928,8.35893605 8.53078045,8.61857306 7.81351091,9.30182834 C7.4134952,9.6844513 7.27555875,9.91675809 7.27555875,10.2310555 C7.27555875,10.6683389 7.27555875,10.6683389 6.54449556,10.6683389 C6.1582735,10.6683389 5.62032134,10.6136785 5.37203573,10.5316878 C4.98581367,10.4360321 4.93063909,10.4360321 5.06857554,10.6000134 C5.34444844,10.9279759 6.13068621,11.2149431 6.77898753,11.2149431 C7.27555875,11.2149431 7.55143165,11.3105989 7.9928283,11.6248963 C8.87562158,12.2671563 9.88255767,12.5131282 11.5515887,12.4994631 C13.7447783,12.4857979 15,11.9118635 15,10.941641 C15,10.2173904 14.1723813,9.79377214 12.4481757,9.64345598 C11.579176,9.56146535 9.86876403,9.6981164 9.12390719,9.91675809 C8.98597074,9.95775341 9.13770084,9.86209767 9.46874832,9.6981164 C9.86876403,9.50680492 10.530859,9.37015387 11.4274459,9.28816323 C13.4137308,9.12418197 14.3103177,8.68689859 14.3103177,7.86699225 C14.3103177,7.07441612 13.4275245,6.62346764 11.5377951,6.44582127 C9.675653,6.28184 9.53771655,5.95387746 11.1101921,5.47559877 C12.2274773,5.14763623 12.7930168,4.65569243 12.7930168,3.98610225 C12.7930168,2.96121933 12.2274773,2.61959169 10.337748,2.52393595 C9.19287542,2.46927553 8.91700252,2.49660574 8.42043129,2.72891254 C8.08938381,2.8792287 7.82730455,3.09787039 7.82730455,3.20719123 Z M9.46481059,3.1 C9.40036741,3.225 9.22851894,3.35 9.12111365,3.35 C8.99222729,3.35 8.97074623,3.225 9.03518941,3.1 C9.09963259,2.95 9.27148106,2.85 9.37888635,2.85 C9.50777271,2.85 9.52925377,2.95 9.46481059,3.1 Z M13.4715455,11.0594724 C13.2400289,11.327165 11.7419804,11.5633643 10.8295326,11.4846312 C9.82175454,11.3744048 8.73226469,10.996486 9.05911164,10.8390198 C9.97155939,10.4296077 11.8056201,10.3241885 12.7320745,10.6107466 C12.9908283,10.720973 13.5532573,10.9649927 13.4715455,11.0594724 Z" id="snake" fill="#FFFFFF" fill-rule="nonzero"></path>
        </g>
    </g>
</svg>