<?xml version="1.0" encoding="UTF-8"?>
<svg width="16px" height="12px" viewBox="0 0 16 12" version="1.1" xmlns="http://www.w3.org/2000/svg" xmlns:xlink="http://www.w3.org/1999/xlink">
    <title>flags/S/BQ-BO - Bonaire</title>
    <defs>
        <rect id="path-1" x="0" y="0" width="16" height="12"></rect>
    </defs>
    <g id="Symbols" stroke="none" stroke-width="1" fill="none" fill-rule="evenodd">
        <g id="flag">
            <mask id="mask-2" fill="white">
                <use xlink:href="#path-1"></use>
            </mask>
            <g id="mask"></g>
            <g id="contents" mask="url(#mask-2)">
                <polygon id="bg" fill="#FFFFFF" points="0 0 16 0 16 12 0 12"></polygon>
                <polygon id="Path-448" fill="#FEDA00" points="0 5.46666667 0 0 8 0"></polygon>
                <polygon id="Path-451" fill="#00268D" points="2.98427949e-13 12 16.0045011 12 16.0045011 0"></polygon>
                <path d="M4.77593329,3.30248447 C5.31704536,3.32949292 5.79991535,3.57728849 6.13669703,3.95736363 C6.47590239,4.340174 6.66680386,4.85737373 6.61954233,5.41895964 L6.61954233,5.41895964 L6.735,5.463 L6.60716127,5.52708017 C6.55091482,5.92308493 6.37556082,6.28068971 6.11868274,6.56268841 L6.00371044,6.67880758 C5.68395135,6.97594578 5.26431295,7.16714 4.80064969,7.19612447 L4.80064969,7.19612447 L4.6770312,7.44225596 L4.55385176,7.19619722 C4.08988402,7.16747062 3.66993765,6.97632605 3.34995109,6.67911249 C3.03045504,6.38235453 2.81047576,5.97981208 2.74617206,5.52708017 L2.74617206,5.52708017 L2.55828574,5.43308687 L2.72905089,5.34747012 C2.70272074,4.80740446 2.89626236,4.31259342 3.22791392,3.94474626 C3.55970378,3.57674571 4.0296684,3.33563093 4.55619069,3.30365908 L4.55619069,3.30365908 Z" id="Combined-Shape" stroke="#000000" stroke-width="0.5" fill="#FFFFFF"></path>
                <polygon id="Path-450" fill="#F00A17" points="4.68789759 4.15 4.36338215 4.69453031 3.72333333 4.69453031 4.04248703 5.26661786 3.72333333 5.81536425 4.36338215 5.81536425 4.68789759 6.37523129 5.01736234 5.81536425 5.65165224 5.81536425 5.34030439 5.26661786 5.65165224 4.69453031 5.01736234 4.69453031"></polygon>
            </g>
        </g>
    </g>
</svg>