<?xml version="1.0" encoding="UTF-8"?>
<svg width="16px" height="12px" viewBox="0 0 16 12" version="1.1" xmlns="http://www.w3.org/2000/svg" xmlns:xlink="http://www.w3.org/1999/xlink">
    <title>flags/S/MQ-UNF - Martinique</title>
    <g id="Symbols" stroke="none" stroke-width="1" fill="none" fill-rule="evenodd">
        <g id="flag">
            <rect id="bg" fill="#21428E" x="0" y="0" width="15.999999" height="11.9999993"></rect>
            <path d="M6.26184327,2.56575283 C6.26184327,2.66414159 6.41633209,2.66414159 6.21770361,2.72973409 C6.03011005,2.7953266 5.52250394,2.88278327 5.16938664,2.87185118 C5.04800257,2.87185118 4.76109477,2.7953266 4.68385037,2.7953266 C4.59557104,2.80625868 5.05903749,2.9921041 4.88247884,2.94837577 C4.6397107,2.88278327 4.4962568,2.8609191 4.68385037,2.98117202 C4.82730427,3.06862869 5.14731681,3.06862869 5.59974835,3.01396827 C5.77630699,2.9921041 6.23977344,2.89371535 6.40529717,2.87185118 C6.51564632,2.8609191 6.51564632,2.95930785 6.58185582,2.95930785 C7.17774125,2.9921041 8.23709313,2.97023994 8.70055958,2.90464743 C9.08678162,2.84998701 9.23023552,2.87185118 9.34058467,3.00303619 C9.56128298,3.25447412 9.32954975,3.47311579 8.70055958,3.6043008 C7.9281155,3.76828206 7.60810295,3.91039915 7.31016023,4.22742958 C6.59289073,4.99267545 7.4315443,5.85631007 8.99850229,5.97656299 C9.91440027,6.05308758 10.5102857,6.22800092 10.3668318,6.37011801 C10.3116572,6.42477843 9.70473688,6.5122351 9.00953721,6.56689552 C7.4977538,6.68714844 6.82462396,6.89485804 6.25080835,7.44146223 C5.93079581,7.74756058 5.82044665,7.933406 5.82044665,8.18484393 C5.82044665,8.53467061 5.82044665,8.53467061 5.23559614,8.53467061 C4.92661851,8.53467061 4.4962568,8.49094228 4.29762833,8.42534977 C3.98865069,8.34882519 3.94451103,8.34882519 4.05486019,8.48001019 C4.2755585,8.7423802 4.90454867,8.97195397 5.4231897,8.97195397 C5.82044665,8.97195397 6.04114496,9.04847855 6.39426225,9.29991648 C7.10049684,9.81372442 7.90604567,10.0105019 9.24127043,9.99956985 C10.995822,9.98863776 11.9999998,9.52949024 11.9999998,8.75331229 C11.9999998,8.17391184 11.3379044,7.83501725 9.95853993,7.71476432 C9.26334026,7.64917182 7.89501075,7.75849266 7.29912532,7.933406 C7.18877616,7.96620225 7.31016023,7.88967767 7.5749982,7.75849266 C7.89501075,7.60544349 8.42468669,7.49612265 9.14195619,7.43053014 C10.730984,7.29934514 11.4482535,6.94951845 11.4482535,6.29359342 C11.4482535,5.65953256 10.7420189,5.29877379 9.23023552,5.1566567 C7.74052194,5.0254717 7.63017278,4.76310169 8.88815314,4.38047875 C9.78198129,4.11810874 10.2344128,3.72455372 10.2344128,3.18888161 C10.2344128,2.36897533 9.78198129,2.09567323 8.27019788,2.01914864 C7.3542999,1.97542031 7.13360159,1.99728448 6.73634463,2.1831299 C6.47150666,2.30338282 6.26184327,2.47829616 6.26184327,2.56575283 Z M7.57184802,2.47999985 C7.52029348,2.57999985 7.38281471,2.67999984 7.29689048,2.67999984 C7.1937814,2.67999984 7.17659656,2.57999985 7.2281511,2.47999985 C7.27970563,2.35999986 7.41718441,2.27999986 7.50310864,2.27999986 C7.60621771,2.27999986 7.62340256,2.35999986 7.57184802,2.47999985 Z M10.7772358,8.84757743 C10.5920225,9.06173145 9.39358376,9.25069087 8.6636256,9.1877044 C7.85740316,9.09952333 6.98581133,8.79718825 7.24728888,8.6712153 C7.97724704,8.34368563 9.4444955,8.25935029 10.185659,8.48859679 C10.392662,8.57677785 10.8426052,8.77199366 10.7772358,8.84757743 Z" id="snake" fill="#FFFFFF" fill-rule="nonzero"></path>
        </g>
    </g>
</svg>