<?xml version="1.0" encoding="UTF-8"?>
<svg width="16px" height="12px" viewBox="0 0 16 12" version="1.1" xmlns="http://www.w3.org/2000/svg" xmlns:xlink="http://www.w3.org/1999/xlink">
    <title>flags/S/PM-UNF - St. Pierre &amp; z</title>
    <g id="Symbols" stroke="none" stroke-width="1" fill="none" fill-rule="evenodd">
        <g id="flag">
            <g id="shape" fill-rule="nonzero">
                <rect id="Rectangle" fill="#CC0000" x="3.38395983e-14" y="-8.20854508e-13" width="4.00000006" height="4.00000006"></rect>
                <polygon id="Path" fill="#08672F" points="4.00000006 0.520000027 4.00000006 -8.20854508e-13 3.5108031 -8.20854508e-13 3.38395983e-14 3.48000016 3.38395983e-14 4.00000006 0.489195498 4.00000006"></polygon>
                <polygon id="Path" fill="#08672F" points="3.38395983e-14 0.519999976 3.38395983e-14 -8.20854508e-13 0.489196917 -8.20854508e-13 4.00000006 3.47999982 3.99999978 4.00000006 3.50101952 3.99999955"></polygon>
                <polygon id="Path" fill="#FFFFFF" points="0 1.60427553 3.99949715 1.60000002 4.00000006 2.39572453 0.000502911065 2.40000004"></polygon>
                <polygon id="Path" fill="#FFFFFF" points="1.60000002 0.000500185454 2.39572644 0 2.40000004 3.99949987 1.60427362 4.00000006"></polygon>
            </g>
            <polygon id="bg-white" fill="#FFFFFF" fill-rule="nonzero" points="0 4.00000006 4.00000006 4.00000006 4.00000006 8.00000012 0 8.00000012"></polygon>
            <rect id="Rectangle" fill="#000000" x="1.2" y="4.8" width="1" height="1"></rect>
            <rect id="Rectangle" fill="#000000" x="1.2" y="6.8" width="1" height="1"></rect>
            <rect id="Rectangle" fill="#000000" x="1.2" y="5.8" width="1" height="1"></rect>
            <rect id="Rectangle" fill="#000000" x="1" y="8" width="1" height="1"></rect>
            <rect id="Rectangle" fill="#000000" x="2.2" y="5.8" width="1" height="1"></rect>
            <rect id="Rectangle" fill="#000000" x="2" y="8" width="1" height="1"></rect>
            <rect id="Rectangle" fill="#000000" x="2.2" y="4.8" width="1" height="1"></rect>
            <rect id="Rectangle" fill="#000000" x="2.2" y="6.8" width="1" height="1"></rect>
            <polygon id="bg-red" fill="#CC0000" fill-rule="nonzero" points="0 12.0000002 4.00000006 12.0000002 4.00000006 8.00000012 0 8.00000012"></polygon>
            <polygon id="bg-blue" fill="#0092C8" fill-rule="nonzero" points="4.00000006 0 16.0000002 0 16.0000002 12.0000002 4.00000006 12.0000002"></polygon>
            <g id="lions" transform="translate(0.819214, 8.709379)" fill="#FFCF00" fill-rule="nonzero" stroke="#650000" stroke-width="0.05">
                <path d="M0.515611655,0.367722608 C0.477654695,0.321176156 0.515163848,0.236284774 0.549197167,0.27249506 C0.531370191,0.237756554 0.560520283,0.210253364 0.573741247,0.227656322 C0.567589234,0.199377919 0.595545175,0.180638001 0.609256594,0.20673682 C0.604330718,0.175200278 0.645784837,0.156741234 0.656532201,0.191210101 C0.657257221,0.160212837 0.697773078,0.135743088 0.706718552,0.181132339 C0.714608482,0.146191603 0.759773,0.141618973 0.763515386,0.191255041 C0.776693701,0.162381185 0.810556428,0.164493358 0.81252891,0.206444711 C0.827167929,0.186716116 0.864996944,0.216241599 0.858557055,0.25114863 C0.881917645,0.245812022 0.910470662,0.295661554 0.88199228,0.332411119 C0.932509156,0.304009132 0.944450671,0.396079656 0.913743917,0.437884954 C0.929630397,0.448097535 0.931027128,0.43907586 0.945037085,0.446738105 C0.959047041,0.45440035 0.984454748,0.467017214 1.00769806,0.472454936 C1.02871299,0.472454936 1.10576775,0.469904599 1.12152629,0.467343027 C1.13728482,0.464792691 1.15883286,0.456119299 1.18457109,0.446906629 C1.21153546,0.437705194 1.25051598,0.437356911 1.2860953,0.42825659 C1.31428581,0.424919806 2.10569909,0.441794721 2.1284626,0.439244384 C2.15123678,0.436694048 2.18445978,0.413628668 2.1827112,0.385530025 C2.18095196,0.357431382 2.15473394,0.337062394 2.1284626,0.334512057 C2.10220193,0.33196172 1.96735876,0.33196172 1.94283601,0.337062394 C1.91832391,0.342174302 1.88329902,0.354948455 1.86579191,0.372834517 C1.85736888,0.378541878 1.84346554,0.400169182 1.83167329,0.414381411 C1.82063805,0.424189534 1.78948349,0.425638844 1.78948349,0.412864691 C1.78948349,0.404505878 1.78687128,0.414460056 1.77921592,0.41770696 C1.76927887,0.424256943 1.72445554,0.426054538 1.72643869,0.41770696 C1.72994651,0.408247121 1.72620412,0.405269856 1.71442254,0.415145388 C1.70565832,0.422807633 1.64372237,0.425638844 1.63234594,0.418044009 C1.63916966,0.406033833 1.63922297,0.406719166 1.620607,0.416594699 C1.60882542,0.422054891 1.56002514,0.426324177 1.55651732,0.415830721 C1.55604819,0.407561788 1.55052523,0.41161761 1.54363754,0.413965717 C1.4883334,0.429211562 1.48302369,0.411561435 1.49177724,0.40389919 C1.50054146,0.396236945 1.51379441,0.352398119 1.49978446,0.354948455 C1.4857745,0.357498792 1.3982176,0.375384853 1.36844911,0.380496762 C1.33868062,0.385597435 1.12327487,0.380496762 1.09350637,0.37793519 C1.06373788,0.375384853 1.03047223,0.34585937 1.02871299,0.303863077 C1.02559967,0.236487003 1.07774784,0.219555913 1.10926491,0.209343332 C1.14079264,0.199119515 1.21959598,0.183795025 1.25111306,0.183795025 C1.28264079,0.183795025 1.37254334,0.195546797 1.3970661,0.185334215 C1.42157819,0.175110399 1.49603141,0.146573592 1.51707833,0.144461419 C1.54811561,0.141416744 1.63702659,0.152494418 1.67939764,0.206186307 C1.65733783,0.216747172 1.64696364,0.222960107 1.67199817,0.213432858 C1.69477235,0.20832095 1.79249019,0.18686217 1.81525371,0.181244689 C1.89405705,0.177660735 1.87339396,0.190446124 1.83486125,0.200658705 C1.8220028,0.243845904 1.70620208,0.304132717 1.66942861,0.311806196 C1.63265514,0.319468441 1.55460881,0.31385096 1.53716566,0.310502941 C1.51964789,0.309109805 1.43679296,0.30475064 1.40661931,0.284156952 C1.357883,0.249317331 1.26783118,0.226420476 1.22834954,0.227218158 C1.19141614,0.228004606 1.08605359,0.239666497 1.0865014,0.278314771 C1.08595763,0.346185184 1.18457109,0.349836547 1.22660096,0.34728621 C1.26863083,0.344724639 1.37370551,0.339623965 1.403474,0.326849812 C1.43324249,0.314075659 1.49763072,0.310941104 1.53265561,0.310941104 C1.5676805,0.310941104 1.61886909,0.319187567 1.63462762,0.316625996 C1.65038616,0.314075659 1.68717029,0.313491441 1.70467741,0.300717288 C1.72218452,0.287943134 1.76026943,0.274595998 1.79879148,0.274595998 C1.83731353,0.274595998 2.12321687,0.262990281 2.16173892,0.265540618 C2.21751219,0.265136159 2.25690853,0.329366444 2.25758024,0.383990835 C2.2579001,0.409539142 2.24603322,0.447288618 2.23594691,0.453130799 C2.25325144,0.454816043 2.2965501,0.459961657 2.31083727,0.463096211 C2.33766303,0.468702458 2.38114294,0.499857011 2.38613279,0.528236528 C2.36575758,0.515203971 2.33287576,0.49550908 2.30323521,0.493351967 C2.29743505,0.493419377 1.67336291,0.492250941 1.6243174,0.49256552 C1.75766788,0.509182031 1.85958659,0.617408431 1.8850476,0.679369254 C1.90781112,0.717680478 1.96385094,0.702355988 1.98486588,0.69724408 C2.00588081,0.692143407 2.03040357,0.669145437 2.04791068,0.651270611 C2.06542846,0.633384549 2.09280865,0.628845624 2.10516599,0.633384549 C2.13238624,0.630834212 2.13722682,0.661483192 2.12671402,0.676818917 C2.11621189,0.692143407 2.1284626,0.685840592 2.15648252,0.685840592 C2.18449177,0.685840592 2.20919578,0.696839621 2.22572198,0.720039821 C2.20996345,0.73536431 2.20202021,0.722792387 2.22478372,0.725353958 C2.24754723,0.727904295 2.27503404,0.771900411 2.25806003,0.784315045 C2.24321844,0.79206717 2.23879368,0.789213489 2.25806003,0.791763826 C2.28677298,0.794325397 2.29459894,0.813919173 2.29833066,0.848747559 C2.27402115,0.853443774 2.28607995,0.845410775 2.29833066,0.858184929 C2.31059204,0.870959082 2.328451,0.927515887 2.28432071,0.929706704 C2.26856217,0.92204446 2.26885005,0.920561444 2.2722086,0.937941933 C2.27532192,0.955827994 2.26681359,0.998678144 2.24229084,0.998678144 C2.20832149,1.00557641 2.17749745,0.985903991 2.17400029,0.962917256 C2.17049247,0.939930521 2.17095094,1.00728413 2.12280104,1.0179124 C2.07732733,1.02857438 2.05316708,1.00123972 2.04965926,0.988465562 C2.0461621,0.975691409 2.04791068,0.985903991 2.03040357,0.983353654 C2.01288579,0.980803317 1.99082597,0.980567383 1.98136872,0.950143103 C1.98136872,0.932268276 1.98478058,0.908697323 2.01597779,0.905517829 C2.02998775,0.902956257 2.03390073,0.883733235 2.02339859,0.881171663 C2.01288579,0.878621327 2.02163935,0.840298867 2.04441352,0.850522684 C2.06717704,0.860735265 2.11970905,0.863296837 2.13197042,0.876059755 C2.1442318,0.888833908 2.14772896,0.865847173 2.1284626,0.845410775 C2.10920691,0.824974377 1.99187086,0.784101581 1.96035378,0.799426071 C1.88695611,0.838400158 1.76421439,0.832636622 1.74319946,0.827524714 C1.72218452,0.822424041 1.66149603,0.836355395 1.63287904,0.743228785 C1.60966772,0.648136056 1.52144978,0.601140205 1.48117915,0.596028296 C1.28248086,0.576322171 1.29328153,0.591478136 1.42213262,0.59791577 C1.42117303,0.615667012 1.41650305,0.652012118 1.43739004,0.657337491 C1.47241493,0.652236817 1.54532215,0.635946121 1.56282926,0.651270611 C1.58034704,0.6665951 1.59785415,0.679369254 1.59435699,0.715130142 C1.59084917,0.75089103 1.59610557,0.740678448 1.58034704,0.756002938 C1.56457784,0.771327428 1.57158282,0.801987642 1.59610557,0.812200224 C1.62061767,0.822424041 1.63113047,0.835198194 1.646889,0.850522684 C1.66264754,0.865847173 1.63988402,0.896496153 1.62587407,0.886283572 C1.61186411,0.876059755 1.61186411,0.876059755 1.61011553,0.896496153 C1.60835629,0.916932551 1.59095579,0.95561453 1.5613579,0.95844574 C1.55514191,0.955974049 1.55686917,0.945401948 1.55757286,0.937368949 C1.5593321,0.919494123 1.55165541,0.959580472 1.54250736,0.970703085 C1.53667521,0.978208041 1.4870966,0.992903373 1.4730973,0.985241128 C1.47934527,0.96924254 1.47573083,0.975770054 1.46346945,0.983432299 C1.45150661,0.988465562 1.38696912,0.997914166 1.41572472,0.965467592 C1.42319883,0.953648411 1.40546781,0.980241569 1.39570135,0.984870374 C1.3874809,0.990263156 1.34918275,0.99357747 1.34918275,0.978241746 C1.337028,0.989510414 1.30809114,0.989510414 1.30365572,0.980803317 C1.29490217,0.970579501 1.29407053,0.988465562 1.27831199,0.991015899 C1.26255345,0.99357747 1.22834954,0.988465562 1.22660096,0.968029164 C1.22485238,0.947592766 1.23009812,0.960366919 1.21084243,0.962917256 C1.16393999,0.995700879 1.14079264,0.950143103 1.14079264,0.934818613 C1.14079264,0.919494123 1.13904406,0.901608061 1.1442898,0.89139548 C1.1495462,0.881171663 1.11166388,0.878093283 1.12327487,0.857971464 C1.1363359,0.83337813 1.15004732,0.815334779 1.17581754,0.819862469 C1.18807891,0.822424041 1.18631967,0.814761796 1.18107393,0.804537979 C1.17581754,0.794325397 1.19508389,0.789213489 1.21784741,0.799426071 C1.24061092,0.809649887 1.25636946,0.835198194 1.26337443,0.858184929 C1.27037941,0.881171663 1.32467066,0.863296837 1.34743417,0.865847173 C1.37019769,0.86839751 1.37194627,0.827524714 1.35793631,0.814761796 C1.34392635,0.801987642 1.3054043,0.756002938 1.28964577,0.740678448 C1.27388723,0.725353958 1.28438937,0.671707009 1.29839933,0.658932856 C1.37995348,0.600836861 1.3351728,0.582299171 1.3054043,0.58741108 C1.27563581,0.592511753 1.19913548,0.624778567 1.17461272,0.65287721 C1.15010063,0.680975853 0.959622793,0.818694033 0.942105016,0.834029758 C0.924597901,0.849354247 0.899126222,0.85307302 0.888624086,0.835198194 C0.878111287,0.817312132 0.871106309,0.830086285 0.872854888,0.855623357 C0.886768886,0.952109221 0.804553684,0.982859316 0.790138568,0.98164594 C0.780105563,0.980544913 0.765733096,0.974669027 0.755380228,0.965579942 C0.745155306,1.01949653 0.699969464,1.02486684 0.659133745,1.01954147 C0.658515345,1.01317125 0.666757124,1.00128466 0.662257731,1.00583482 C0.648759554,1.02436127 0.607284111,1.02241762 0.571672806,1.01959765 C0.569305827,1.00832898 0.583955507,0.994667262 0.576950529,1.00232951 C0.564998352,1.02603528 0.544441885,1.02178846 0.511133587,1.01927183 C0.510749752,1.01427227 0.52657226,0.997565882 0.51919411,1.007565 C0.504608401,1.02436127 0.474253495,1.01910331 0.450679664,1.019519 C0.447886202,1.01575529 0.462866407,0.989353124 0.44916565,1.00680102 C0.436072632,1.02169858 0.408340594,1.02418151 0.381834694,1.02018186 C0.37712206,1.00763241 0.387346983,1.00749759 0.390161769,0.999621881 C0.397166747,0.986847728 0.386664611,0.999621881 0.377911053,0.999621881 C0.369146834,0.999621881 0.356896118,1.00217222 0.351639719,0.989398064 C0.34638332,0.976635146 0.349400685,1.00217222 0.344314879,1.00913789 C0.339229073,1.01515983 0.33349288,1.02933836 0.315975103,1.03443903 C0.298467989,1.03955094 0.252930298,1.04466285 0.24592532,1.02167611 C0.23648939,1.01109278 0.231915363,0.988465562 0.238920342,0.975691409 C0.24592532,0.962917256 0.205580057,1.00032968 0.188136914,1.00379005 C0.13685237,1.01422733 0.130348509,0.929706704 0.153112023,0.92204446 C0.175886199,0.914382215 0.172378379,0.901608061 0.160117001,0.89139548 C0.147866285,0.881171663 0.140861307,0.840298867 0.156619843,0.827524714 C0.172378379,0.814761796 0.208853311,0.807672534 0.231915363,0.822424041 C0.245413541,0.832187224 0.274307744,0.865689884 0.268699496,0.840298867 C0.26479718,0.824614858 0.274776875,0.804650329 0.285961383,0.796078052 C0.295663865,0.786651918 0.325528316,0.78425887 0.33349288,0.804537979 C0.351948919,0.851545065 0.365009952,0.871790469 0.387773466,0.870959082 C0.436275211,0.856982787 0.50181494,0.841163959 0.521081296,0.841163959 C0.545795968,0.834973494 0.676651522,0.821446599 0.676651522,0.808672446 C0.598168043,0.837299132 0.566448393,0.800246223 0.557684173,0.802807795 C0.548930616,0.805358131 0.527371915,0.794505157 0.527371915,0.78738219 C0.527371915,0.7720577 0.547139388,0.773888999 0.519119475,0.778989673 C0.502337381,0.777540362 0.487399824,0.77672021 0.473283247,0.7582724 C0.470969578,0.748846266 0.491835244,0.716444632 0.499405312,0.689211081 C0.481322446,0.684054233 0.441339693,0.718365811 0.428236012,0.748610332 C0.419055972,0.737004615 0.41533491,0.747554246 0.382527729,0.756002938 C0.367046407,0.76311467 0.341862603,0.760564333 0.327852647,0.752902088 C0.313853352,0.745228608 0.258965029,0.701401017 0.285513577,0.695761065 C0.27851926,0.692154642 0.270490724,0.690087409 0.265202338,0.688548219 C0.245935982,0.679886062 0.227725171,0.663033617 0.233322756,0.658416047 C0.228450191,0.650742567 0.23890968,0.650765037 0.231190343,0.649225847 C0.220688206,0.646675511 0.194811369,0.626789626 0.201453837,0.619104911 C0.194822031,0.614487341 0.179074157,0.607364374 0.172399703,0.603780421 C0.160138325,0.596118176 0.147866285,0.569525018 0.146107044,0.556750865 C0.134815915,0.557896831 0.11070898,0.53537073 0.121594951,0.528652222 C0.103192223,0.514248999 0.0875296456,0.490543227 0.0997910232,0.482880982 C0.0890436591,0.473960421 0.0815482257,0.457669724 0.089022335,0.463770309 C0.0778591504,0.449367086 0.0813136602,0.434132476 0.0900778797,0.434132476 C0.0988314371,0.434132476 0.0953236169,0.393270915 0.0795650812,0.393270915 C0.0638065454,0.393270915 0.038462811,0.406157418 0.0200280963,0.393270915 C0.00486663639,0.381047275 -0.007991817,0.326849812 0.00601813967,0.303863077 C0.0200280963,0.280865108 0.0480480097,0.255316801 0.0620579664,0.257878373 C0.076067923,0.26042871 0.0690629447,0.265540618 0.0655551245,0.242553883 C0.0620579664,0.219555913 0.0853332597,0.202287775 0.100580016,0.196569178 C0.119068041,0.187659853 0.154871264,0.194018842 0.1653734,0.204231423 C0.175886199,0.21445524 0.179383357,0.21445524 0.179383357,0.196569178 C0.179383357,0.18400849 0.192913521,0.177458506 0.204950995,0.174166662 C0.224995682,0.169178338 0.240679583,0.175177808 0.247684561,0.183795025 C0.25855987,0.200231777 0.265191676,0.219555913 0.251181719,0.234891638 C0.237171763,0.250216128 0.24932652,0.237217275 0.272100696,0.232116602 C0.286761039,0.227004694 0.313213628,0.233588382 0.317723682,0.250216128 C0.323801061,0.268090954 0.328236481,0.298751169 0.312477945,0.314075659 C0.29671941,0.329400149 0.273945233,0.367722608 0.286206611,0.380496762 C0.298467989,0.393270915 0.336990038,0.449468201 0.345743596,0.457130446 C0.354507815,0.464792691 0.365009952,0.482667517 0.379019908,0.480117181 C0.393029865,0.477566844 0.408788401,0.475005272 0.421049778,0.472454936 C0.469700792,0.462141239 0.491632665,0.456782162 0.429184936,0.4588831 C0.443205555,0.438008538 0.472568889,0.431851779 0.485310059,0.428177946 C0.474082902,0.410392999 0.515611655,0.372834517 0.515611655,0.367722608 L0.515611655,0.367722608 Z" id="Path"></path>
                <path d="M0.515611655,1.75972255 C0.477654695,1.71317609 0.515163848,1.62828471 0.549197167,1.664495 C0.531370191,1.62975649 0.560520283,1.6022533 0.573741247,1.61965626 C0.567589234,1.59137786 0.595545175,1.57263794 0.609256594,1.59873676 C0.604330718,1.56720022 0.645784837,1.54874117 0.656532201,1.58321004 C0.657257221,1.55221278 0.697773078,1.52774303 0.706718552,1.57313228 C0.714608482,1.53819154 0.759773,1.53361891 0.763515386,1.58325498 C0.776693701,1.55438112 0.810556428,1.5564933 0.81252891,1.59844465 C0.827167929,1.57871605 0.864996944,1.60824154 0.858557055,1.64314857 C0.881917645,1.63781196 0.910470662,1.68766149 0.88199228,1.72441106 C0.932509156,1.69600907 0.944450671,1.78807959 0.913743917,1.82988489 C0.929630397,1.84009747 0.931027128,1.8310758 0.945037085,1.83873804 C0.959047041,1.84640029 0.984454748,1.85901715 1.00769806,1.86445487 C1.02871299,1.86445487 1.10576775,1.86190454 1.12152629,1.85934297 C1.13728482,1.85679263 1.15883286,1.84811924 1.18457109,1.83890657 C1.21153546,1.82970513 1.25051598,1.82935685 1.2860953,1.82025653 C1.31428581,1.81691974 2.10569909,1.83379466 2.1284626,1.83124432 C2.15123678,1.82869399 2.18445978,1.80562861 2.1827112,1.77752996 C2.18095196,1.74943132 2.15473394,1.72906233 2.1284626,1.72651199 C2.10220193,1.72396166 1.96735876,1.72396166 1.94283601,1.72906233 C1.91832391,1.73417424 1.88329902,1.74694839 1.86579191,1.76483445 C1.85736888,1.77054182 1.84346554,1.79216912 1.83167329,1.80638135 C1.82063805,1.81618947 1.78948349,1.81763878 1.78948349,1.80486463 C1.78948349,1.79650582 1.78687128,1.80645999 1.77921592,1.8097069 C1.76927887,1.81625688 1.72445554,1.81805448 1.72643869,1.8097069 C1.72994651,1.80024706 1.72620412,1.79726979 1.71442254,1.80714533 C1.70565832,1.81480757 1.64372237,1.81763878 1.63234594,1.81004395 C1.63916966,1.79803377 1.63922297,1.7987191 1.620607,1.80859464 C1.60882542,1.81405483 1.56002514,1.81832411 1.55651732,1.80783066 C1.55604819,1.79956173 1.55052523,1.80361755 1.54363754,1.80596565 C1.4883334,1.8212115 1.48302369,1.80356137 1.49177724,1.79589913 C1.50054146,1.78823688 1.51379441,1.74439806 1.49978446,1.74694839 C1.4857745,1.74949873 1.3982176,1.76738479 1.36844911,1.7724967 C1.33868062,1.77759737 1.12327487,1.7724967 1.09350637,1.76993513 C1.06373788,1.76738479 1.03047223,1.73785931 1.02871299,1.69586302 C1.02559967,1.62848694 1.07774784,1.61155585 1.10926491,1.60134327 C1.14079264,1.59111945 1.21959598,1.57579496 1.25111306,1.57579496 C1.28264079,1.57579496 1.37254334,1.58754673 1.3970661,1.57733415 C1.42157819,1.56711034 1.49603141,1.53857353 1.51707833,1.53646136 C1.54811561,1.53341668 1.63702659,1.54449436 1.67939764,1.59818624 C1.65733783,1.60874711 1.64696364,1.61496004 1.67199817,1.6054328 C1.69477235,1.60032089 1.79249019,1.57886211 1.81525371,1.57324463 C1.89405705,1.56966067 1.87339396,1.58244606 1.83486125,1.59265864 C1.8220028,1.63584584 1.70620208,1.69613265 1.66942861,1.70380613 C1.63265514,1.71146838 1.55460881,1.7058509 1.53716566,1.70250288 C1.51964789,1.70110974 1.43679296,1.69675058 1.40661931,1.67615689 C1.357883,1.64131727 1.26783118,1.61842041 1.22834954,1.6192181 C1.19141614,1.62000454 1.08605359,1.63166644 1.0865014,1.67031471 C1.08595763,1.73818512 1.18457109,1.74183648 1.22660096,1.73928615 C1.26863083,1.73672458 1.37370551,1.7316239 1.403474,1.71884975 C1.43324249,1.7060756 1.49763072,1.70294104 1.53265561,1.70294104 C1.5676805,1.70294104 1.61886909,1.71118751 1.63462762,1.70862593 C1.65038616,1.7060756 1.68717029,1.70549138 1.70467741,1.69271723 C1.72218452,1.67994307 1.76026943,1.66659594 1.79879148,1.66659594 C1.83731353,1.66659594 2.12321687,1.65499022 2.16173892,1.65754056 C2.21751219,1.6571361 2.25690853,1.72136638 2.25758024,1.77599077 C2.2579001,1.80153908 2.24603322,1.83928856 2.23594691,1.84513074 C2.25325144,1.84681598 2.2965501,1.85196159 2.31083727,1.85509615 C2.33766303,1.8607024 2.38114294,1.89185695 2.38613279,1.92023647 C2.36575758,1.90720391 2.33287576,1.88750902 2.30323521,1.88535191 C2.29743505,1.88541931 1.67336291,1.88425088 1.6243174,1.88456546 C1.75766788,1.90118197 1.85958659,2.00940837 1.8850476,2.07136919 C1.90781112,2.10968042 1.96385094,2.09435593 1.98486588,2.08924402 C2.00588081,2.08414334 2.03040357,2.06114537 2.04791068,2.04327055 C2.06542846,2.02538449 2.09280865,2.02084556 2.10516599,2.02538449 C2.13238624,2.02283415 2.13722682,2.05348313 2.12671402,2.06881885 C2.11621189,2.08414334 2.1284626,2.07784053 2.15648252,2.07784053 C2.18449177,2.07784053 2.20919578,2.08883956 2.22572198,2.11203976 C2.20996345,2.12736425 2.20202021,2.11479232 2.22478372,2.1173539 C2.24754723,2.11990423 2.27503404,2.16390035 2.25806003,2.17631498 C2.24321844,2.18406711 2.23879368,2.18121343 2.25806003,2.18376376 C2.28677298,2.18632534 2.29459894,2.20591911 2.29833066,2.2407475 C2.27402115,2.24544371 2.28607995,2.23741071 2.29833066,2.25018487 C2.31059204,2.26295902 2.328451,2.31951582 2.28432071,2.32170664 C2.26856217,2.3140444 2.26885005,2.31256138 2.2722086,2.32994187 C2.27532192,2.34782793 2.26681359,2.39067808 2.24229084,2.39067808 C2.20832149,2.39757635 2.17749745,2.37790393 2.17400029,2.35491719 C2.17049247,2.33193046 2.17095094,2.39928406 2.12280104,2.40991234 C2.07732733,2.42057432 2.05316708,2.39323965 2.04965926,2.3804655 C2.0461621,2.36769135 2.04791068,2.37790393 2.03040357,2.37535359 C2.01288579,2.37280326 1.99082597,2.37256732 1.98136872,2.34214304 C1.98136872,2.32426821 1.98478058,2.30069726 2.01597779,2.29751777 C2.02998775,2.29495619 2.03390073,2.27573317 2.02339859,2.2731716 C2.01288579,2.27062126 2.02163935,2.2322988 2.04441352,2.24252262 C2.06717704,2.2527352 2.11970905,2.25529677 2.13197042,2.26805969 C2.1442318,2.28083385 2.14772896,2.25784711 2.1284626,2.23741071 C2.10920691,2.21697431 1.99187086,2.17610152 1.96035378,2.19142601 C1.88695611,2.2304001 1.76421439,2.22463656 1.74319946,2.21952465 C1.72218452,2.21442398 1.66149603,2.22835533 1.63287904,2.13522872 C1.60966772,2.04013599 1.52144978,1.99314014 1.48117915,1.98802823 C1.28248086,1.96832211 1.29328153,1.98347807 1.42213262,1.98991571 C1.42117303,2.00766695 1.41650305,2.04401206 1.43739004,2.04933743 C1.47241493,2.04423676 1.54532215,2.02794606 1.56282926,2.04327055 C1.58034704,2.05859504 1.59785415,2.07136919 1.59435699,2.10713008 C1.59084917,2.14289097 1.59610557,2.13267839 1.58034704,2.14800288 C1.56457784,2.16332737 1.57158282,2.19398758 1.59610557,2.20420016 C1.62061767,2.21442398 1.63113047,2.22719813 1.646889,2.24252262 C1.66264754,2.25784711 1.63988402,2.28849609 1.62587407,2.27828351 C1.61186411,2.26805969 1.61186411,2.26805969 1.61011553,2.28849609 C1.60835629,2.30893249 1.59095579,2.34761447 1.5613579,2.35044568 C1.55514191,2.34797399 1.55686917,2.33740189 1.55757286,2.32936889 C1.5593321,2.31149406 1.55165541,2.35158041 1.54250736,2.36270302 C1.53667521,2.37020798 1.4870966,2.38490331 1.4730973,2.37724107 C1.47934527,2.36124248 1.47573083,2.36776999 1.46346945,2.37543224 C1.45150661,2.3804655 1.38696912,2.3899141 1.41572472,2.35746753 C1.42319883,2.34564835 1.40546781,2.37224151 1.39570135,2.37687031 C1.3874809,2.38226309 1.34918275,2.38557741 1.34918275,2.37024168 C1.337028,2.38151035 1.30809114,2.38151035 1.30365572,2.37280326 C1.29490217,2.36257944 1.29407053,2.3804655 1.27831199,2.38301584 C1.26255345,2.38557741 1.22834954,2.3804655 1.22660096,2.3600291 C1.22485238,2.3395927 1.23009812,2.35236686 1.21084243,2.35491719 C1.16393999,2.38770082 1.14079264,2.34214304 1.14079264,2.32681855 C1.14079264,2.31149406 1.13904406,2.293608 1.1442898,2.28339542 C1.1495462,2.2731716 1.11166388,2.27009322 1.12327487,2.2499714 C1.1363359,2.22537807 1.15004732,2.20733472 1.17581754,2.21186241 C1.18807891,2.21442398 1.18631967,2.20676173 1.18107393,2.19653792 C1.17581754,2.18632534 1.19508389,2.18121343 1.21784741,2.19142601 C1.24061092,2.20164983 1.25636946,2.22719813 1.26337443,2.25018487 C1.27037941,2.2731716 1.32467066,2.25529677 1.34743417,2.25784711 C1.37019769,2.26039745 1.37194627,2.21952465 1.35793631,2.20676173 C1.34392635,2.19398758 1.3054043,2.14800288 1.28964577,2.13267839 C1.27388723,2.1173539 1.28438937,2.06370695 1.29839933,2.05093279 C1.37995348,1.9928368 1.3351728,1.97429911 1.3054043,1.97941102 C1.27563581,1.98451169 1.19913548,2.01677851 1.17461272,2.04487715 C1.15010063,2.07297579 0.959622793,2.21069397 0.942105016,2.2260297 C0.924597901,2.24135419 0.899126222,2.24507296 0.888624086,2.22719813 C0.878111287,2.20931207 0.871106309,2.22208622 0.872854888,2.24762329 C0.886768886,2.34410916 0.804553684,2.37485925 0.790138568,2.37364588 C0.780105563,2.37254485 0.765733096,2.36666897 0.755380228,2.35757988 C0.745155306,2.41149647 0.699969464,2.41686678 0.659133745,2.41154141 C0.658515345,2.40517118 0.666757124,2.39328459 0.662257731,2.39783475 C0.648759554,2.41636121 0.607284111,2.41441756 0.571672806,2.41159758 C0.569305827,2.40032891 0.583955507,2.3866672 0.576950529,2.39432944 C0.564998352,2.41803522 0.544441885,2.4137884 0.511133587,2.41127177 C0.510749752,2.40627221 0.52657226,2.38956582 0.51919411,2.39956494 C0.504608401,2.41636121 0.474253495,2.41110324 0.450679664,2.41151894 C0.447886202,2.40775523 0.462866407,2.38135306 0.44916565,2.39880096 C0.436072632,2.41369852 0.408340594,2.41618145 0.381834694,2.4121818 C0.37712206,2.39963235 0.387346983,2.39949753 0.390161769,2.39162182 C0.397166747,2.37884767 0.386664611,2.39162182 0.377911053,2.39162182 C0.369146834,2.39162182 0.356896118,2.39417216 0.351639719,2.381398 C0.34638332,2.36863508 0.349400685,2.39417216 0.344314879,2.40113783 C0.339229073,2.40715977 0.33349288,2.4213383 0.315975103,2.42643897 C0.298467989,2.43155088 0.252930298,2.43666279 0.24592532,2.41367605 C0.23648939,2.40309272 0.231915363,2.3804655 0.238920342,2.36769135 C0.24592532,2.35491719 0.205580057,2.39232962 0.188136914,2.39578999 C0.13685237,2.40622727 0.130348509,2.32170664 0.153112023,2.3140444 C0.175886199,2.30638215 0.172378379,2.293608 0.160117001,2.28339542 C0.147866285,2.2731716 0.140861307,2.2322988 0.156619843,2.21952465 C0.172378379,2.20676173 0.208853311,2.19967247 0.231915363,2.21442398 C0.245413541,2.22418716 0.274307744,2.25768982 0.268699496,2.2322988 C0.26479718,2.2166148 0.274776875,2.19665027 0.285961383,2.18807799 C0.295663865,2.17865186 0.325528316,2.17625881 0.33349288,2.19653792 C0.351948919,2.243545 0.365009952,2.26379041 0.387773466,2.26295902 C0.436275211,2.24898273 0.50181494,2.2331639 0.521081296,2.2331639 C0.545795968,2.22697343 0.676651522,2.21344654 0.676651522,2.20067238 C0.598168043,2.22929907 0.566448393,2.19224616 0.557684173,2.19480773 C0.548930616,2.19735807 0.527371915,2.18650509 0.527371915,2.17938213 C0.527371915,2.16405764 0.547139388,2.16588894 0.519119475,2.17098961 C0.502337381,2.1695403 0.487399824,2.16872015 0.473283247,2.15027234 C0.470969578,2.1408462 0.491835244,2.10844457 0.499405312,2.08121102 C0.481322446,2.07605417 0.441339693,2.11036575 0.428236012,2.14061027 C0.419055972,2.12900455 0.41533491,2.13955418 0.382527729,2.14800288 C0.367046407,2.15511461 0.341862603,2.15256427 0.327852647,2.14490203 C0.313853352,2.13722855 0.258965029,2.09340095 0.285513577,2.087761 C0.27851926,2.08415458 0.270490724,2.08208735 0.265202338,2.08054816 C0.245935982,2.071886 0.227725171,2.05503355 0.233322756,2.05041598 C0.228450191,2.04274251 0.23890968,2.04276498 0.231190343,2.04122579 C0.220688206,2.03867545 0.194811369,2.01878956 0.201453837,2.01110485 C0.194822031,2.00648728 0.179074157,1.99936431 0.172399703,1.99578036 C0.160138325,1.98811811 0.147866285,1.96152496 0.146107044,1.9487508 C0.134815915,1.94989677 0.11070898,1.92737067 0.121594951,1.92065216 C0.103192223,1.90624894 0.0875296456,1.88254316 0.0997910232,1.87488092 C0.0890436591,1.86596036 0.0815482257,1.84966966 0.089022335,1.85577025 C0.0778591504,1.84136702 0.0813136602,1.82613241 0.0900778797,1.82613241 C0.0988314371,1.82613241 0.0953236169,1.78527085 0.0795650812,1.78527085 C0.0638065454,1.78527085 0.038462811,1.79815736 0.0200280963,1.78527085 C0.00486663639,1.77304721 -0.007991817,1.71884975 0.00601813967,1.69586302 C0.0200280963,1.67286505 0.0480480097,1.64731674 0.0620579664,1.64987831 C0.076067923,1.65242865 0.0690629447,1.65754056 0.0655551245,1.63455382 C0.0620579664,1.61155585 0.0853332597,1.59428771 0.100580016,1.58856912 C0.119068041,1.57965979 0.154871264,1.58601878 0.1653734,1.59623136 C0.175886199,1.60645518 0.179383357,1.60645518 0.179383357,1.58856912 C0.179383357,1.57600843 0.192913521,1.56945844 0.204950995,1.5661666 C0.224995682,1.56117828 0.240679583,1.56717775 0.247684561,1.57579496 C0.25855987,1.59223171 0.265191676,1.61155585 0.251181719,1.62689158 C0.237171763,1.64221607 0.24932652,1.62921721 0.272100696,1.62411654 C0.286761039,1.61900463 0.313213628,1.62558832 0.317723682,1.64221607 C0.323801061,1.66009089 0.328236481,1.69075111 0.312477945,1.7060756 C0.29671941,1.72140009 0.273945233,1.75972255 0.286206611,1.7724967 C0.298467989,1.78527085 0.336990038,1.84146814 0.345743596,1.84913038 C0.354507815,1.85679263 0.365009952,1.87466746 0.379019908,1.87211712 C0.393029865,1.86956678 0.408788401,1.86700521 0.421049778,1.86445487 C0.469700792,1.85414118 0.491632665,1.8487821 0.429184936,1.85088304 C0.443205555,1.83000848 0.472568889,1.82385172 0.485310059,1.82017788 C0.474082902,1.80239294 0.515611655,1.76483445 0.515611655,1.75972255 L0.515611655,1.75972255 Z" id="Path"></path>
            </g>
            <path d="M10.4685819,1.51522956 C10.3082086,1.48773915 10.0085406,1.5025298 9.82283298,1.54905527 C9.57169772,1.61249725 9.4514177,1.60827469 9.16018934,1.51945358 C9.13768295,1.51240626 9.1995855,1.63506278 9.34589698,1.88742316 C9.2530433,1.91280373 9.10532279,1.97200856 9.20450998,2.0058474 C9.34800339,2.05448119 9.49995116,2.04814738 9.81016579,1.97411985 C10.0296476,1.92337473 10.1225013,1.91067787 10.2596612,1.91702629 C10.3546358,1.9191405 10.4390496,1.93183443 10.4474895,1.94029414 C10.4580354,1.94875093 10.4073817,2.00795862 10.3398622,2.07140057 C10.2364473,2.16444571 10.1984605,2.18560226 10.1372749,2.18771348 C10.0950608,2.18771348 10.0296476,2.19405619 9.99376688,2.20039875 C9.93046025,2.21309846 9.92835399,2.21731813 9.92835399,2.33574241 L9.92835399,2.45840372 L9.4387508,2.9194185 C9.16862941,3.1731879 8.91540233,3.39735411 8.87741535,3.4206073 C8.83942837,3.44387668 8.79510816,3.61517193 8.83942837,3.63209131 C8.86685442,3.64266229 8.84997427,3.67861388 8.75501448,3.80972037 C8.6178403,4.00004768 8.51231929,4.20307046 8.4300264,4.42934804 L8.3709323,4.58794635 L8.33717272,4.47163344 C8.28230588,4.28554462 8.24009165,4.01485583 8.24009165,3.83721219 C8.24009165,3.67437671 8.24009165,3.67437671 8.34982547,3.51788962 C8.48278697,3.32756362 8.79510801,3.00189265 8.96814832,2.87078616 C9.03778861,2.81791505 9.15597652,2.74601203 9.23193604,2.7100619 C9.40076397,2.63181034 9.44297791,2.59586021 9.44297791,2.53665529 C9.44297791,2.46686349 9.39232389,2.43302473 9.31213726,2.44994411 C9.26571049,2.45840081 9.07789644,2.42880214 8.75712103,2.36323424 C8.49122676,2.31037785 8.26963884,2.2638407 8.26753243,2.2638407 C8.26753243,2.26172656 8.28863955,2.17079556 8.31817201,2.06083104 C8.35194617,1.93183589 8.38781216,1.84090205 8.42158661,1.80495193 C8.46379113,1.75983155 8.34138987,1.76405897 8.05438284,1.81763421 C7.97840917,1.826091 7.79692878,1.86415677 7.65342094,1.90434402 C7.36220702,1.98470687 7.13428529,1.99738909 6.98445836,1.94451816 C6.93803145,1.92759875 6.89793792,1.91280519 6.89581722,1.91280519 C6.8916044,1.91280519 6.88949872,1.93605845 6.88949872,1.96567472 C6.88949872,2.05660845 6.94224471,2.25115412 6.85572456,2.24481141 C6.76920426,2.23846885 6.69956397,2.23846885 6.69956397,2.24481141 C6.69956397,2.2892213 6.80296413,2.40764558 6.87049801,2.4414858 C7.01821853,2.51762469 7.32632704,2.49011959 7.66819512,2.36958409 C7.83912902,2.31037931 8.06071723,2.29345847 8.04594349,2.33998104 C8.03750327,2.36536164 7.73995626,2.58951327 7.2292604,2.95537154 C6.97179176,3.139349 6.93169852,3.19010874 6.97179176,3.27893129 C6.99289888,3.32756508 6.98656507,3.34659583 6.92325859,3.45233776 C6.78608441,3.68494915 6.65736431,4.08464778 6.65736431,4.28765744 C6.65736431,4.38916074 6.65103123,4.39762196 6.51175006,4.54566241 C6.22685508,4.84595293 5.53822412,5.99208211 5.72815887,6.08936428 C5.83804303,6.16095454 5.92045616,6.21464724 5.97539824,6.25044237 C5.98250704,6.2550738 5.97558344,6.281057 5.95462743,6.32839196 C5.85333382,6.43835648 5.8322267,6.52505162 5.88498713,6.59906616 C5.91030693,6.63290492 5.94196039,6.63925331 6.06013385,6.63925331 C6.18676198,6.63925331 6.22896134,6.64982429 6.37457574,6.72172747 C6.51808358,6.79362918 6.57295057,6.83804038 6.78397786,7.05796956 C7.43606072,7.74103918 7.59644842,7.88271666 7.98684968,8.12380371 C8.21266486,8.26336996 8.62417324,8.4663942 8.8267606,8.54040714 C9.48517713,8.7772557 10.2111272,8.82166676 10.896984,8.66729118 C11.2135324,8.59538947 11.445667,8.51291531 11.7495481,8.36065227 C11.9183757,8.27395553 12.000683,8.24433921 12.0048957,8.26125874 C12.0112288,8.2760669 12.0302157,8.33739748 12.0492162,8.3966024 C12.0850824,8.51291531 12.1906032,8.69056041 12.2349237,8.70746521 C12.2496973,8.71170822 12.5873381,8.66517981 12.9883003,8.60384923 C13.3892622,8.5425185 13.7226904,8.49177334 13.7311305,8.48964754 C13.7712238,8.48753326 13.8197716,8.25703615 13.8197716,8.07728114 C13.8197716,7.89328764 13.8155442,7.88060544 13.7269176,7.70719882 C13.6129568,7.48726978 13.4399167,7.30540355 13.2731952,7.22926481 L13.1550218,7.17428248 L13.2056611,7.10872916 C13.4399167,6.79785177 13.7163569,6.35164515 13.8239843,6.11268536 L13.8851845,5.95232566 L13.9949179,5.95019694 C14.054012,5.95019694 14.108879,5.94174009 14.1152125,5.93116473 C14.1215456,5.92270788 14.1131054,5.85678724 14.0962121,5.75952097 C14.0793318,5.6622388 14.0645583,5.5797661 14.0645583,5.57552747 C14.0645583,5.57341333 14.1025452,5.57129905 14.1489722,5.57129905 L14.2333861,5.57129905 L14.2333861,5.09125367 L14.5984676,4.39550184 C14.7968423,4.01273732 14.7546426,3.52210492 14.7736289,3.56864207 C14.779962,3.58554687 14.763083,3.63208402 14.739869,3.67436942 C14.7018822,3.73993717 14.6850023,3.74838235 14.6385753,3.73993717 C14.6069219,3.73359461 14.3663333,3.69340016 14.1025452,3.6490034 L13.6256242,3.56864207 L13.3913686,3.99157931 C13.262649,4.22420514 13.1592342,4.41664381 13.1613552,4.42088099 C13.165568,4.42299527 13.4103693,4.44202296 13.7058105,4.46105516 C14.0012517,4.48008591 14.2481593,4.50124246 14.2523867,4.50546505 C14.2565995,4.50757919 14.1848528,4.64081003 14.0941055,4.79942307 L13.9295051,5.08490528 L13.4441298,5.08490528 C13.0220751,5.08490528 12.9587539,5.08914828 12.9355405,5.11874404 C12.9144477,5.14834723 12.903887,5.1166299 12.8637938,4.93476673 C12.7983806,4.62812782 12.7350594,4.22420514 12.7350594,4.11846467 C12.7350594,4.01484854 12.8279132,3.80125332 12.9967407,3.51365974 C13.2478758,3.08646928 13.6066238,2.67199166 13.7501319,2.64449984 C13.8725325,2.62123206 13.9590528,2.55567874 13.9590528,2.4858884 C13.9590528,2.41398523 13.9252785,2.38014632 13.8408647,2.36957534 C13.7838915,2.36323278 13.0389548,2.06928351 13.0051808,2.03968178 C12.9840882,2.0227624 12.84902,1.57231874 12.8891136,1.61461728 C12.9169819,1.6479589 12.8885011,1.64057233 12.7772735,1.62307407 C12.5641251,1.59769494 12.361538,1.60826594 12.1716177,1.65689977 C11.960576,1.71188203 11.7959753,1.7140079 11.6102678,1.66114275 C11.5300813,1.64000077 11.4688808,1.63154106 11.4688808,1.64211206 C11.4688808,1.69074588 11.5596139,1.82186698 11.6229353,1.86415239 C11.660922,1.88953152 11.848736,2.15599761 12.1188572,2.08831849 C12.2729114,2.05025568 12.4058583,2.0333363 12.5388057,2.03122493 C12.7055268,2.0291108 12.7857134,2.0439102 12.7540601,2.06717506 C12.4712717,2.29132669 11.4984278,3.02937864 11.3886796,3.10339304 C11.2198665,3.21759473 11.1945321,3.25143363 11.1945321,3.35082717 C11.1945321,3.40580936 11.1354528,3.7674306 11.0953448,3.85623856 L11.0214918,4.01696283 C11.2100078,3.22040979 11.3422529,2.78688596 11.4182269,2.71639134 C11.4667601,2.67199457 11.5131867,2.6233462 11.5216412,2.61066399 C11.5385212,2.5810608 11.4752146,2.50492192 11.4330002,2.50492192 C11.4013468,2.50492192 10.6458496,1.98046535 10.6458496,1.95932192 C10.6458496,1.90010251 10.7598105,1.59558949 10.7935703,1.56386048 C10.8167835,1.54271851 10.5529962,1.53215043 10.4685819,1.51522956 Z M11.3832373,2.58106372 C11.3790245,2.57682086 10.557223,2.21520545 10.5846494,2.12427153 L10.6099836,2.03968761 C11.1325169,2.40765234 11.3902681,2.58811104 11.3832373,2.58106372 Z M8.64105383,2.41187969 C9.08421567,2.50281361 9.09265531,2.50492483 9.0103627,2.52819275 C8.97658825,2.53876374 8.7634547,2.59796997 8.53976008,2.66141192 L8.13035825,2.77561362 L8.14513156,2.71852006 C8.19155832,2.52395558 8.24642517,2.33574096 8.25697165,2.33574096 C8.26542646,2.33574096 8.43635992,2.36958117 8.64105383,2.41187969 Z M7.94465061,2.68679107 L7.90245081,2.83905571 L7.737836,2.88346691 C7.64920944,2.90672025 7.5099287,2.94690886 7.42972749,2.97017678 C7.34954071,2.99132021 7.2904469,3.00611379 7.29467431,2.99977983 C7.31155388,2.98497182 7.99530478,2.48378286 8.00162372,2.48378286 C8.00374398,2.48378286 8.00374398,2.49646813 7.9974109,2.50916201 C7.9931835,2.52395558 7.96997026,2.60431837 7.94465061,2.68679107 Z M10.9856114,4.11213523 L10.9328508,4.28554316 C10.8695441,4.50124829 10.8252383,4.71482894 10.7914638,4.97705781 C10.7703569,5.14624184 10.753477,5.19487563 10.6817302,5.31329991 C10.6374097,5.38943865 10.5888765,5.4782612 10.57833,5.51208552 C10.5222078,5.6416129 10.5162659,5.54947477 10.506569,5.25409499 C10.4917953,4.93688378 10.5192366,4.6154354 10.5846494,4.31303367 C10.6289697,4.11213523 10.9011974,3.93872876 10.9307446,4.00004622 L10.9856114,4.11213523 Z M8.29285208,4.5562334 C8.33506631,4.68100753 8.34138554,4.72540284 8.32450539,4.79730601 C8.31395949,4.84384156 8.29495849,4.98763171 8.28230588,5.11240439 C8.24221249,5.51632561 8.49122676,6.24166619 8.66426736,6.59906616 C8.71702779,6.70268082 8.18522495,6.1359387 8.08393134,5.89274174 C8.02062443,5.74260305 8.01639732,5.71933527 8.06071782,5.71933527 C8.08815831,5.71933527 8.09237113,5.67492392 8.09237113,5.45499488 L8.09237113,5.19065595 L8.02906436,5.19065595 C7.97419766,5.19065595 7.96365132,5.18008497 7.94042336,5.09972218 C7.92354335,5.04685107 7.91299701,4.89669809 7.91299701,4.72540284 C7.91299701,4.41243012 7.94254435,4.28130744 8.07759739,3.97890571 C8.15703609,3.77760494 8.17882843,3.7914654 8.17467846,4.00217508 C8.17678414,4.12482181 8.2295453,4.36801877 8.29285208,4.5562334 Z M12.84902,5.18219473 C12.8764608,5.29004803 12.8764608,5.30908024 12.8384741,5.41904476 C12.815261,5.48459807 12.7709405,5.6389738 12.7160736,5.70030307 C12.6168861,5.81026904 12.6147801,5.81239485 12.5894602,5.76585784 C12.4881664,5.57341917 12.4501796,5.08491403 12.5134862,4.75289466 C12.5409124,4.60697856 12.6485395,4.21786549 12.6612066,4.21786549 C12.6654194,4.21786549 12.6780866,4.29611706 12.69286,4.39128669 C12.7203004,4.58583659 12.8025933,5.00455109 12.84902,5.18219473 Z M6.78397786,4.97705781 L6.64680412,4.50971812 L6.59193698,4.54566241 C6.59475525,4.57245385 6.65876888,4.71625231 6.78397786,4.97705781 Z M7.8813437,5.17162375 C7.8813437,5.18219473 7.79482369,5.19065595 7.68930268,5.19065595 L7.49726137,5.19065595 L6.97179176,5.19859716 C6.98023198,5.16688421 7.80580041,4.8658496 7.82268027,4.80453345 L7.58800951,4.8522882 L6.97179176,4.97705781 C7.01400585,5.00877077 7.76948975,5.00878826 7.80959772,5.05953343 C7.84969038,5.11240439 7.8813437,5.16316413 7.8813437,5.17162375 Z M6.86839233,5.50362868 L7.0055665,5.71933527 L7.00977932,5.90543853 C7.011885,6.00694343 7.03299241,6.16555633 7.05620609,6.25649024 C7.09842018,6.43623053 7.08998039,6.5229404 7.02244607,6.5229404 C7.00344551,6.5229404 6.89160542,6.46584684 6.77343195,6.3960565 C6.65736475,6.32626601 6.53284318,6.26071283 6.4969769,6.24802902 L6.43367027,6.22476125 L6.59193698,5.64532219 C6.67845743,5.32599962 6.74845893,5.04150142 6.7547923,5.04150142 C6.76323252,5.04150142 6.79664548,5.11451561 6.82196513,5.17584634 C6.8599524,5.26466889 6.86839233,5.32811084 6.86839233,5.50362868 Z M10.8273444,5.89486754 C10.8758777,6.14017573 10.9645187,6.37067735 11.1016783,6.61176295 C11.1671059,6.72595006 11.2177457,6.82323091 11.213533,6.82746939 C11.1924259,6.84650014 10.9771712,6.88033905 10.9581851,6.86975348 C10.9286382,6.85072273 10.8104646,6.59484211 10.7302635,6.37491438 C10.6395159,6.12747894 10.557223,5.78490303 10.5719965,5.72144649 C10.5783296,5.69184476 10.6247572,5.58611741 10.6732902,5.48672388 L10.7598105,5.30696887 L10.7766901,5.51421424 C10.7851303,5.62840135 10.8062374,5.7996966 10.8273444,5.89486754 Z M12.4079646,5.8250772 C12.4902724,5.86737718 12.5134858,5.88851915 12.5092585,5.92447074 C12.5050457,5.96253208 12.5155916,5.97099185 12.5725651,5.9773417 C12.6844198,5.98791268 12.6654191,6.03867243 12.4902724,6.19092089 C12.3995248,6.26917245 12.3172173,6.3326144 12.3045647,6.3326144 C12.2560316,6.3326144 12.0724296,6.08976319 12.0048957,5.95019694 C12.2004526,5.83013083 12.3348089,5.78842426 12.4079646,5.8250772 Z M12.2454706,6.38548551 L12.1906038,6.42354686 C12.1167507,6.4743066 11.6313749,6.71326624 11.6208143,6.70480663 C11.6166015,6.7005782 11.6693619,6.51025804 11.7347749,6.2818548 L11.8376333,6.13382733 C11.8777264,6.20995163 12.0555503,6.19515806 12.1230699,6.26282406 L12.2454706,6.38548551 Z M11.405574,6.40029352 C11.3443738,6.58849371 11.287386,6.753455 11.2789462,6.76402599 C11.2515198,6.79151781 11.2304127,6.63925331 11.2451863,6.52717757 C11.2705064,6.35588232 11.4646537,6.20995309 11.405574,6.40029352 Z M8.97870924,6.38548551 C8.93016149,6.5356226 8.88162817,6.6688565 8.87318824,6.67731626 C8.86474801,6.68788725 8.82042795,6.67731626 8.7740009,6.65406147 C8.70436046,6.61811134 8.68748045,6.59695479 8.66426736,6.50390965 C8.63894757,6.40029352 8.63894757,6.39183391 8.69170771,6.30089999 C8.7592273,6.1866983 8.85841479,6.10844819 8.97026917,6.08095637 C9.08421567,6.053466 9.09054919,6.053466 9.08000285,6.08307051 C9.07366977,6.0978772 9.02934854,6.23322087 8.97870924,6.38548551 Z M9.51895172,6.29877418 C9.54427166,6.4087387 9.59703224,6.54831954 9.6687788,6.69001305 L9.77851248,6.90783087 L9.6687788,6.89513102 C9.60757843,6.88878846 9.46196418,6.8612908 9.34589698,6.83803746 L9.13064243,6.79362626 L9.18129646,6.63079078 C9.20872266,6.54196968 9.25727041,6.38759382 9.28892373,6.28397769 C9.34379071,6.09998566 9.3522305,6.08941321 9.43664454,6.11268245 C9.47463137,6.12325635 9.48940497,6.15497076 9.51895172,6.29877418 Z M9.90301947,6.29031442 L10.1225013,6.3960565 L10.0254202,6.50602102 C9.97055364,6.5673516 9.91145954,6.66039674 9.89247312,6.71326624 C9.87347242,6.76613735 9.85237988,6.81689695 9.8439401,6.82534359 C9.80595312,6.86764211 9.56959145,6.31780639 9.56959145,6.18880966 C9.56959145,6.14439832 9.64767182,6.16977892 9.90301947,6.29031442 Z M10.8463307,6.90570492 C10.8357848,6.90570492 10.7154897,6.91416177 10.5825427,6.92473567 C10.4495958,6.93319251 10.242781,6.93743552 10.1246075,6.93107823 L9.90935299,6.91839311 L9.92202061,6.85283979 C9.94100703,6.75132045 10.0064345,6.63289617 10.1013946,6.53139141 C10.1478214,6.48063167 10.1900211,6.43834773 10.1942483,6.43834773 C10.2005813,6.43834773 10.2681012,6.47640908 10.346196,6.52504287 C10.57833,6.66674528 10.8885448,6.90148247 10.8463307,6.90570492 Z" id="boat" stroke="#000000" stroke-width="0.3" fill="#FFCF00" fill-rule="nonzero"></path>
            <g id="water" transform="translate(4.440000, 8.000000)">
                <path d="M10.6149284,0.71391098 L10.6149284,3.289937 L0.230407904,3.289937 L0.230407904,0.555728117 C0.24064408,0.599357855 0.399632127,0.653147357 0.512185827,0.696790219 C0.716807266,0.773159504 0.732167791,0.773159504 0.931678219,0.631340581 C1.20281234,0.440418318 1.37162894,0.445877339 1.67856818,0.653147357 C2.13899044,0.964067185 2.26176602,0.969526207 2.39988866,0.696790219 C2.50220632,0.484062638 2.73241071,0.484062638 3.12632042,0.70225799 C3.29513716,0.794973571 3.46907838,0.865883834 3.52023,0.865883834 C3.56627115,0.865883834 3.67882444,0.778611234 3.76579532,0.674976152 C3.96019447,0.434981169 4.07273442,0.451343506 4.5740728,0.762248752 C4.97821828,1.01862226 5.11634105,1.03498474 5.15727078,0.822255554 C5.21354757,0.554978588 5.25958831,0.511335726 5.49490385,0.511335726 C5.6381511,0.516788915 5.85300858,0.582244531 6.07299055,0.691340093 C6.26226534,0.789529277 6.45666463,0.865883834 6.4924696,0.865883834 C6.5333992,0.865883834 6.57944035,0.789529277 6.59991202,0.69679751 C6.61525907,0.604067347 6.68175787,0.49497339 6.73803465,0.451343506 C6.87615729,0.358611885 7.0193908,0.396797329 7.46957743,0.642251333 C7.91976392,0.882246316 8.0476644,0.860439394 8.0476644,0.538616251 C8.0476644,0.440425609 8.14485717,0.374974367 8.2932157,0.374974367 C8.33925658,0.374974367 8.52854458,0.473166468 8.71781938,0.598608326 C9.127076,0.860439394 9.2396297,0.860439394 9.27543468,0.593169865 C9.31123938,0.320433877 9.48006973,0.314974856 9.92002032,0.560443442 C10.2474197,0.751351124 10.6149284,0.828462501 10.6149284,0.713924104 L10.6149284,0.71391098 Z" id="Path" fill="#0091C8" fill-rule="nonzero"></path>
                <path d="M0.268800158,0.649118237 C0.279009114,0.692772765 0.386159186,0.758238589 0.498406794,0.801877076 C0.702510776,0.878265318 0.717817813,0.878265318 0.916810512,0.736411252 C1.18724072,0.545458365 1.35561921,0.550918845 1.6617613,0.758238589 C2.12098873,1.06921675 2.24344543,1.07467708 2.38120971,0.801877076 C2.48326184,0.589098311 2.71286847,0.589098311 3.10575579,0.807344847 C3.27414775,0.900098342 3.44762378,0.971024645 3.49865658,0.971024645 C3.54457796,0.971024645 3.65682557,0.883731485 3.74357053,0.780073217 C3.93746528,0.540006635 4.04971302,0.556372034 4.54975014,0.867366232 C4.95284641,1.1237848 5.0906107,1.1401502 5.13143386,0.927371576 C5.18756488,0.660046488 5.23348626,0.616393419 5.4681907,0.616393419 C5.61106613,0.621861189 5.82536573,0.687319576 6.04477702,0.796439928 C6.23356022,0.894637862 6.42745498,0.971024645 6.46318047,0.971024645 C6.50399029,0.971024645 6.54992542,0.894637862 6.57033027,0.801884367 C6.58563744,0.709145455 6.65196394,0.600026562 6.70809441,0.556372034 C6.84585842,0.463633122 6.98873412,0.501812587 7.43775205,0.747339503 C7.88675609,0.987391356 8.01432462,0.965564165 8.01432462,0.643665049 C8.01432462,0.545465657 8.11126519,0.479999979 8.25923843,0.479999979 C8.30515981,0.479999979 8.49395675,0.578199371 8.68274023,0.703686433 C9.09093431,0.965564165 9.20319553,0.965564165 9.23890768,0.698218662 C9.27463317,0.425433241 9.44301153,0.419972761 9.88182009,0.665485094 C10.2083808,0.856437981 10.5145229,0.921918387 10.5145229,0.807337556" id="Path" stroke="#FFFFFF" stroke-width="0.5" stroke-linecap="round" stroke-linejoin="round"></path>
            </g>
        </g>
    </g>
</svg>